<svg xmlns="http://www.w3.org/2000/svg" xmlns:xlink="http://www.w3.org/1999/xlink" width="500" zoomAndPan="magnify" viewBox="0 0 375 374.999991" height="500" preserveAspectRatio="xMidYMid meet" version="1.0"><defs><clipPath id="8f9bd0083a"><path d="M 29 84 L 346 84 L 346 291 L 29 291 Z M 29 84 " clip-rule="nonzero"/></clipPath><clipPath id="5634c736b4"><path d="M 43.3125 84.164062 L 345.460938 106.871094 L 331.632812 290.851562 L 29.488281 268.144531 Z M 43.3125 84.164062 " clip-rule="nonzero"/></clipPath><clipPath id="926655b65f"><path d="M 6 16 L 258 16 L 258 191 L 6 191 Z M 6 16 " clip-rule="nonzero"/></clipPath><clipPath id="b7af088abe"><path d="M 14.3125 0.164062 L 316.460938 22.871094 L 302.632812 206.851562 L 0.488281 184.144531 Z M 14.3125 0.164062 " clip-rule="nonzero"/></clipPath><clipPath id="97cde875cd"><path d="M 302.683594 206.832031 L 0.535156 184.125 L 14.363281 0.140625 L 316.511719 22.851562 Z M 302.683594 206.832031 " clip-rule="nonzero"/></clipPath><clipPath id="81dc2af292"><path d="M 59 16 L 311 16 L 311 191 L 59 191 Z M 59 16 " clip-rule="nonzero"/></clipPath><clipPath id="9baa67a32e"><path d="M 14.3125 0.164062 L 316.460938 22.871094 L 302.632812 206.851562 L 0.488281 184.144531 Z M 14.3125 0.164062 " clip-rule="nonzero"/></clipPath><clipPath id="8c342e665f"><path d="M 302.683594 206.832031 L 0.535156 184.125 L 14.363281 0.140625 L 316.511719 22.851562 Z M 302.683594 206.832031 " clip-rule="nonzero"/></clipPath><clipPath id="2624dc35b3"><rect x="0" width="317" y="0" height="207"/></clipPath></defs><g clip-path="url(#8f9bd0083a)"><g clip-path="url(#5634c736b4)"><g transform="matrix(1, 0, 0, 1, 29, 84)"><g clip-path="url(#2624dc35b3)"><g clip-path="url(#926655b65f)"><g clip-path="url(#b7af088abe)"><g clip-path="url(#97cde875cd)"><path fill="#31a4ab" d="M 87.617188 190.574219 C 116.648438 192.757812 137.605469 179.949219 155.972656 163.214844 L 158.011719 161.316406 C 163.367188 156.3125 168.394531 151.125 173.035156 146.261719 L 174.6875 144.535156 C 175.417969 143.761719 176.152344 142.988281 176.886719 142.214844 C 199.839844 118.015625 221.519531 95.15625 256.964844 95.375 L 257.101562 73.496094 C 212.171875 73.21875 184.988281 101.875 161.011719 127.160156 C 138.683594 150.695312 119.402344 171.023438 89.257812 168.757812 C 53.246094 166.050781 26.15625 134.554688 28.863281 98.546875 C 31.566406 62.539062 63.0625 35.445312 99.074219 38.152344 C 112.519531 39.164062 125.15625 44.351562 135.378906 52.625 C 140.347656 47.414062 145.476562 42.140625 150.882812 37.085938 C 136.957031 25.210938 119.421875 17.738281 100.714844 16.332031 C 52.675781 12.722656 10.652344 48.867188 7.042969 96.90625 C 3.433594 144.945312 39.578125 186.964844 87.617188 190.574219 " fill-opacity="1" fill-rule="nonzero"/></g></g></g><g clip-path="url(#81dc2af292)"><g clip-path="url(#9baa67a32e)"><g clip-path="url(#8c342e665f)"><path fill="#31a4ab" d="M 59.890625 133.570312 C 104.820312 133.847656 132.003906 105.191406 155.980469 79.910156 C 178.308594 56.371094 197.589844 36.046875 227.734375 38.3125 C 263.742188 41.015625 290.835938 72.511719 288.128906 108.523438 C 285.421875 144.53125 253.925781 171.621094 217.917969 168.914062 C 204.472656 167.90625 191.835938 162.714844 181.613281 154.441406 C 176.640625 159.652344 171.511719 164.925781 166.101562 169.976562 C 180.03125 181.851562 197.566406 189.328125 216.277344 190.734375 C 264.316406 194.34375 306.335938 158.203125 309.949219 110.164062 C 313.558594 62.125 277.414062 20.101562 229.375 16.492188 C 188.867188 13.449219 164.078125 39.578125 140.105469 64.851562 C 117.152344 89.050781 95.472656 111.910156 60.027344 111.691406 L 59.890625 133.570312 " fill-opacity="1" fill-rule="nonzero"/></g></g></g></g></g></g></g></svg>